<?xml version="1.0" encoding="UTF-8"?>
<!-- Generator: Adobe Illustrator 15.0.2, SVG Export Plug-In . SVG Version: 6.00 Build 0)  -->
<!DOCTYPE svg PUBLIC "-//W3C//DTD SVG 1.1//EN" "http://www.w3.org/Graphics/SVG/1.1/DTD/svg11.dtd">
<svg version="1.1" id="Warstwa_1" xmlns="http://www.w3.org/2000/svg" xmlns:xlink="http://www.w3.org/1999/xlink" x="0px" y="0px" width="400px" height="600px" viewBox="0 0 400 600" enable-background="new 0 0 400 600" xml:space="preserve">
<symbol id="next2_3_" viewBox="-23.116 -12.736 46.232 25.473">
	<polygon fill="#FFFFFF" points="-23.116,0 -10.381,-12.736 2.355,0 -10.381,12.736  "/>
	<polygon fill="#FFFFFF" points="2.355,0 8.959,-6.604 15.564,0 8.959,6.604  "/>
	<polygon fill="#FFFFFF" points="15.564,0 19.341,-3.775 23.116,0 19.341,3.776  "/>
	<polyline points="-10.59,3.776 -14.367,0 -10.59,-3.775  "/>
</symbol>
<polygon points="-283.322,1.412 -284.696,0 -296.036,11.073 -285.023,22.278 -283.611,20.905 -293.215,11.135 "/>
<polygon fill="#FFFFFF" points="-183.322,1.412 -184.696,0 -196.036,11.073 -185.023,22.278 -183.611,20.905 -193.215,11.135 "/>
<polygon fill="#FFFFFF" points="-171.1,1.412 -172.474,0 -183.814,11.073 -172.802,22.278 -171.389,20.905 -180.992,11.135 "/>
<polygon points="-283.322,51.205 -294.335,40 -295.747,41.373 -286.144,51.144 -296.036,60.866 -294.662,62.278 "/>
<polygon fill="#FFFFFF" points="-271.592,161.544 -292.765,140 -295.481,142.64 -277.016,161.427 -296.036,180.119   -293.395,182.835 "/>
<polygon fill="#FFFFFF" points="-296.036,101.291 -274.862,122.835 -272.146,120.195 -290.611,101.408 -271.592,82.716 -274.232,80   "/>
<polygon fill="#FFFFFF" points="-241.766,220.749 -267.132,245.679 -292.37,220 -296.036,223.566 -267.29,253.004 -238.202,224.415   "/>
<g>
	
		<circle fill="none" stroke="#000000" stroke-width="2" stroke-linecap="square" stroke-miterlimit="10" cx="-286.79" cy="328.246" r="8.246"/>
	
		<line fill="none" stroke="#000000" stroke-width="2" stroke-linecap="square" stroke-miterlimit="10" x1="-280.946" y1="335.231" x2="-276.799" y2="339.395"/>
</g>
<g>
	
		<circle fill="none" stroke="#000000" stroke-width="2" stroke-linecap="square" stroke-miterlimit="10" cx="9.246" cy="328.246" r="8.246"/>
	
		<line fill="none" stroke="#000000" stroke-width="2" stroke-linecap="square" stroke-miterlimit="10" x1="15.09" y1="335.23" x2="19.238" y2="339.395"/>
</g>
<g id="next__black_1_">
	<polygon points="0,12.736 12.736,25.472 25.471,12.736 12.736,0  "/>
	<polygon points="25.471,12.736 32.075,19.34 38.68,12.736 32.075,6.133  "/>
	<polygon points="38.68,12.736 42.457,16.511 46.233,12.736 42.457,8.96  "/>
	<polyline fill="#FFFFFF" points="12.527,8.96 8.749,12.736 12.527,16.511  "/>
</g>
<g id="next__black" enable-background="new    ">
	<polygon points="46.233,52.736 33.497,40 20.761,52.736 33.497,65.472  "/>
	<polygon points="20.761,52.736 14.157,46.133 7.552,52.736 14.157,59.34  "/>
	<polygon points="7.552,52.736 3.776,48.961 0,52.736 3.776,56.512  "/>
	<polyline fill="#FFFFFF" points="33.706,56.512 37.484,52.736 33.706,48.961  "/>
</g>
<use xlink:href="#next2_3_" width="46.232" height="25.473" x="-23.116" y="-12.736" transform="matrix(1 0 0 -1 121.9495 12.7361)" overflow="visible"/>
<g id="next2_1_" enable-background="new    ">
	<polygon fill="#FFFFFF" points="0,96.57 16.568,113.139 33.137,96.57 16.568,80  "/>
	<polygon fill="#FFFFFF" points="33.137,96.57 41.729,105.161 50.322,96.57 41.729,87.978  "/>
	<polygon fill="#FFFFFF" points="50.322,96.57 55.236,101.481 60.147,96.57 55.236,91.656  "/>
	<polyline points="16.296,91.656 11.382,96.57 16.296,101.481  "/>
</g>
<g id="next2" enable-background="new    ">
	<polygon fill="#FFFFFF" points="60.147,156.57 43.579,140 27.01,156.57 43.579,173.139  "/>
	<polygon fill="#FFFFFF" points="27.01,156.57 18.418,147.978 9.825,156.57 18.418,165.161  "/>
	<polygon fill="#FFFFFF" points="9.825,156.57 4.911,151.658 0,156.57 4.911,161.483  "/>
	<polyline points="43.851,161.483 48.765,156.57 43.851,151.658  "/>
</g>
<g id="next2_2_" enable-background="new    ">
	<polygon fill="#FFFFFF" points="29.386,254.053 45.956,237.485 29.386,220.915 12.816,237.485  "/>
	<polygon fill="#FFFFFF" points="29.386,220.915 37.977,212.323 29.386,203.731 20.795,212.323  "/>
	<polygon fill="#FFFFFF" points="29.386,203.731 34.298,198.817 29.386,193.906 24.473,198.817  "/>
	<polyline points="24.473,237.757 29.386,242.671 34.298,237.757  "/>
</g>
</svg>